<svg class="img-fluid" id="outputsvg" xmlns="http://www.w3.org/2000/svg" style="transform: none; transform-origin: 50% 50%; cursor: move; max-height: none;" width="1024" height="1024" viewBox="0 0 10240 10240"><g id="l1L071vwzP4eMZwooQCQeCv" fill="rgb(33,187,195)" style="transform: none;"><g style="transform: none;"><path id="pq25hA96P" d="M4810 8339 c-30 -4 -91 -13 -135 -19 -92 -14 -258 -47 -295 -59 -14 -5 -45 -14 -70 -21 -25 -6 -53 -16 -62 -21 -10 -5 -27 -9 -37 -9 -11 0 -23 -4 -26 -10 -3 -5 -17 -10 -30 -10 -13 0 -27 -4 -30 -10 -3 -5 -17 -10 -31 -10 -13 0 -24 -4 -24 -10 0 -5 -7 -10 -15 -10 -8 0 -23 -4 -33 -9 -9 -5 -28 -13 -42 -18 -72 -29 -160 -69 -215 -100 -16 -9 -38 -20 -47 -25 -28 -13 -63 -33 -68 -38 -3 -3 -14 -10 -25 -16 -48 -26 -70 -39 -75 -44 -3 -3 -16 -11 -30 -19 -14 -8 -34 -19 -44 -25 -11 -6 -29 -19 -40 -28 -11 -10 -24 -18 -29 -18 -5 0 -17 -8 -26 -18 -9 -10 -32 -29 -51 -42 -19 -14 -48 -37 -64 -52 -16 -16 -33 -28 -38 -28 -6 0 -22 -12 -36 -28 -15 -15 -43 -39 -63 -54 -49 -37 -269 -255 -269 -267 0 -6 -15 -25 -33 -43 -18 -18 -43 -49 -57 -68 -13 -19 -32 -42 -42 -51 -10 -9 -18 -20 -18 -25 0 -5 -14 -25 -30 -44 -17 -19 -36 -49 -44 -65 -8 -17 -26 -44 -40 -60 -14 -17 -26 -36 -26 -42 0 -7 -4 -13 -10 -13 -5 0 -10 -6 -10 -13 0 -7 -9 -23 -20 -35 -11 -12 -20 -28 -20 -36 0 -8 -3 -16 -7 -18 -11 -4 -53 -87 -53 -103 0 -7 -3 -15 -7 -17 -11 -4 -73 -128 -73 -144 0 -8 -4 -14 -10 -14 -5 0 -10 -9 -10 -20 0 -11 -4 -20 -10 -20 -5 0 -10 -9 -10 -20 0 -12 -9 -40 -20 -62 -11 -23 -20 -50 -20 -60 0 -10 -4 -18 -10 -18 -5 0 -10 -11 -10 -24 0 -14 -4 -28 -10 -31 -5 -3 -10 -17 -10 -30 0 -13 -4 -27 -10 -30 -5 -3 -10 -19 -10 -35 0 -16 -5 -32 -10 -35 -6 -3 -10 -21 -10 -40 0 -19 -4 -37 -10 -40 -5 -3 -10 -24 -10 -45 0 -21 -4 -42 -10 -45 -5 -3 -10 -21 -10 -40 0 -19 -4 -37 -10 -40 -5 -3 -10 -28 -10 -56 0 -27 -4 -49 -10 -49 -5 0 -10 -24 -10 -53 0 -29 -5 -58 -10 -63 -7 -7 -9 -124 -6 -345 4 -342 10 -449 26 -484 10 -22 19 -67 27 -135 3 -25 9 -49 14 -55 5 -5 9 -26 9 -46 0 -21 5 -41 10 -44 6 -3 10 -22 10 -41 0 -19 5 -34 10 -34 6 0 10 -13 10 -29 0 -17 5 -33 10 -36 6 -3 10 -17 10 -30 0 -13 4 -27 10 -30 5 -3 10 -17 10 -30 0 -13 5 -27 10 -30 6 -3 10 -17 10 -30 0 -13 5 -27 10 -30 6 -3 10 -17 10 -31 0 -13 5 -24 10 -24 6 0 10 -9 10 -20 0 -11 5 -20 10 -20 6 0 10 -7 10 -15 0 -8 4 -24 10 -35 6 -11 14 -29 20 -40 5 -11 10 -27 10 -35 0 -8 5 -15 10 -15 6 0 10 -9 10 -20 0 -11 5 -20 10 -20 6 0 10 -9 10 -20 0 -11 3 -20 8 -20 4 0 15 -17 24 -37 17 -38 49 -94 58 -103 3 -3 11 -15 18 -27 31 -56 38 -68 55 -87 9 -11 17 -26 17 -33 0 -7 4 -13 8 -13 5 0 15 -12 23 -27 8 -15 26 -41 42 -57 15 -16 27 -33 27 -39 0 -5 8 -17 18 -26 10 -9 29 -32 42 -51 13 -19 36 -46 50 -60 14 -14 50 -54 80 -90 67 -79 85 -98 130 -131 19 -15 65 -55 101 -91 36 -35 81 -75 100 -88 19 -14 43 -32 53 -42 11 -10 25 -18 31 -18 6 0 17 -9 25 -20 8 -11 19 -20 25 -20 5 0 26 -14 45 -30 19 -16 39 -30 43 -30 4 0 17 -9 29 -20 12 -11 28 -20 35 -20 7 0 13 -4 13 -10 0 -5 6 -10 13 -10 7 0 23 -9 35 -20 12 -11 28 -20 37 -20 8 0 15 -4 15 -10 0 -5 9 -10 19 -10 11 0 21 -3 23 -8 4 -10 170 -92 186 -92 6 0 12 -4 12 -10 0 -5 9 -10 20 -10 11 0 20 -4 20 -10 0 -5 9 -10 19 -10 11 0 23 -5 26 -10 3 -6 17 -10 31 -10 13 0 24 -4 24 -10 0 -5 11 -10 24 -10 14 0 28 -4 31 -10 3 -5 17 -10 30 -10 13 0 27 -4 30 -10 3 -5 17 -10 30 -10 13 0 27 -4 30 -10 3 -5 19 -10 36 -10 16 0 29 -4 29 -10 0 -5 13 -10 29 -10 17 0 33 -4 36 -10 3 -5 19 -10 35 -10 16 0 32 -5 35 -10 3 -6 28 -10 55 -10 27 0 52 -4 55 -10 3 -5 25 -10 49 -10 23 0 46 -4 52 -9 5 -5 36 -12 69 -15 33 -4 98 -11 145 -17 47 -6 288 -13 540 -14 439 -4 520 -7 520 -24 0 -4 -9 -17 -20 -29 -11 -12 -20 -25 -20 -31 0 -12 -69 -81 -82 -81 -15 0 -118 -111 -118 -126 0 -8 -3 -14 -8 -14 -4 0 -13 -15 -20 -32 -7 -18 -18 -41 -23 -50 -12 -24 -12 -135 1 -143 6 -3 10 -17 10 -31 0 -13 5 -24 10 -24 6 0 10 -6 10 -14 0 -19 105 -126 124 -126 9 0 16 -4 16 -10 0 -5 9 -10 20 -10 11 0 20 -4 20 -10 0 -6 35 -10 84 -10 47 0 88 5 91 10 3 6 15 10 26 10 10 0 19 4 19 8 0 5 12 15 27 23 38 20 893 876 893 894 0 8 4 15 8 15 29 0 49 207 23 233 -6 6 -11 17 -11 25 0 7 -11 30 -25 50 -27 40 -833 851 -877 883 -55 40 -216 67 -233 39 -3 -5 -19 -10 -36 -10 -16 0 -29 -4 -29 -10 0 -5 -7 -10 -16 -10 -21 0 -110 -93 -127 -133 -37 -85 -51 -197 -27 -212 6 -3 10 -17 10 -31 0 -13 5 -24 10 -24 6 0 10 -8 10 -17 0 -9 59 -75 131 -146 78 -77 132 -138 133 -151 1 -12 6 -28 10 -35 4 -7 6 -15 3 -18 -13 -12 -795 -16 -927 -4 -589 51 -1093 281 -1521 692 -330 318 -572 754 -658 1188 -45 224 -58 528 -32 746 18 151 66 387 91 450 21 49 50 143 50 158 0 9 5 17 10 17 6 0 10 14 10 30 0 17 5 30 10 30 6 0 10 9 10 20 0 11 5 20 10 20 6 0 10 9 10 20 0 11 5 20 10 20 6 0 10 9 10 20 0 11 5 20 10 20 6 0 10 9 10 20 0 11 5 20 10 20 6 0 10 9 10 20 0 11 5 20 10 20 6 0 10 9 10 20 0 11 4 20 9 20 5 0 11 8 14 18 8 23 39 74 57 92 8 8 21 27 29 43 8 15 18 27 23 27 4 0 8 8 8 18 0 10 9 24 20 32 11 8 20 20 20 26 0 6 17 29 38 50 20 22 48 55 62 74 33 46 255 269 300 300 19 14 53 42 75 62 22 21 43 38 48 38 4 0 17 9 29 20 12 11 28 20 35 20 7 0 13 5 13 10 0 6 9 10 20 10 11 0 20 4 20 8 0 5 12 15 28 23 15 8 36 22 46 32 11 9 26 17 33 17 7 0 13 5 13 10 0 6 9 10 20 10 11 0 20 5 20 10 0 6 9 10 20 10 11 0 20 5 20 10 0 6 9 10 20 10 11 0 20 5 20 10 0 6 9 10 20 10 11 0 20 5 20 10 0 6 11 10 24 10 14 0 28 5 31 10 3 6 15 10 26 10 10 0 19 5 19 10 0 6 7 10 15 10 8 0 23 4 33 9 9 5 31 14 47 21 17 7 38 16 47 21 10 5 31 9 47 9 17 0 33 5 36 10 3 6 22 10 41 10 19 0 34 5 34 10 0 6 13 10 29 10 17 0 33 5 36 10 3 6 26 10 51 10 24 0 44 5 44 10 0 6 24 10 53 10 29 0 57 4 62 9 27 27 583 27 610 0 5 -5 35 -9 66 -9 32 0 61 -4 64 -10 3 -5 28 -10 55 -10 27 0 52 -4 55 -10 3 -5 18 -10 32 -10 27 0 84 -16 115 -31 10 -5 29 -9 42 -9 14 0 28 -4 31 -10 3 -5 17 -10 31 -10 13 0 24 -4 24 -10 0 -5 11 -10 24 -10 14 0 28 -4 31 -10 3 -5 15 -10 26 -10 10 0 19 -4 19 -10 0 -5 7 -10 15 -10 8 0 24 -4 35 -10 11 -5 29 -14 40 -20 11 -5 27 -10 35 -10 8 0 15 -4 15 -10 0 -5 9 -10 19 -10 11 0 21 -3 23 -7 4 -10 57 -42 81 -50 9 -3 17 -9 17 -14 0 -5 9 -9 20 -9 11 0 20 -4 20 -10 0 -5 6 -10 13 -10 7 0 23 -9 35 -20 12 -11 28 -20 37 -20 8 0 15 -3 15 -7 0 -9 49 -33 67 -33 7 0 13 -4 13 -10 0 -5 11 -10 25 -10 14 0 34 -5 45 -12 15 -10 26 -10 53 0 18 7 43 12 56 12 63 0 159 81 199 169 56 120 27 263 -71 361 -99 99 -404 271 -639 359 -363 137 -677 192 -1088 190 -135 -1 -270 -5 -300 -10z"></path><path id="pLmO8bAIC" d="M7280 7176 c-112 -32 -219 -117 -266 -214 -15 -31 -31 -65 -36 -74 -12 -25 -10 -235 2 -243 6 -3 10 -19 10 -35 0 -16 5 -32 10 -35 6 -3 10 -15 10 -26 0 -10 4 -19 8 -19 5 0 15 -12 23 -27 18 -36 86 -104 122 -122 15 -8 27 -18 27 -23 0 -4 9 -8 19 -8 11 0 23 -4 26 -10 3 -5 17 -10 30 -10 13 0 27 -4 30 -10 3 -6 48 -10 100 -10 52 0 97 4 100 10 3 6 22 10 41 10 19 0 34 5 34 10 0 6 9 10 20 10 11 0 20 5 20 10 0 6 7 10 15 10 30 0 165 135 165 165 0 8 5 15 10 15 6 0 10 6 10 13 0 8 7 28 16 46 8 17 18 64 21 104 16 207 -112 397 -308 458 -70 22 -190 24 -259 5z"></path><path id="p7RjkItFH" d="M7753 5836 c-28 -6 -55 -14 -59 -18 -4 -5 -16 -8 -26 -8 -10 0 -18 -4 -18 -10 0 -5 -6 -10 -13 -10 -7 0 -23 -9 -35 -20 -12 -11 -25 -20 -29 -20 -12 0 -63 -46 -63 -57 0 -5 -8 -18 -18 -29 -33 -35 -62 -82 -62 -98 0 -9 -4 -16 -10 -16 -5 0 -10 -13 -10 -29 0 -17 -4 -33 -10 -36 -5 -3 -10 -39 -10 -80 0 -41 5 -77 10 -80 6 -3 10 -17 10 -30 0 -13 5 -27 10 -30 6 -3 10 -17 10 -31 0 -13 5 -24 10 -24 6 0 10 -6 10 -12 1 -35 153 -187 188 -188 6 0 12 -4 12 -10 0 -5 9 -10 19 -10 11 0 23 -4 26 -10 4 -6 57 -10 125 -10 68 0 121 4 125 10 3 6 19 10 36 10 16 0 29 4 29 8 0 5 12 15 28 23 27 14 152 132 152 143 0 4 8 19 17 33 29 45 44 94 50 173 10 133 -34 254 -128 349 -61 63 -132 98 -233 117 -80 16 -73 16 -143 0z"></path><path id="pTTYe1aa0" d="M7612 4434 c-64 -14 -144 -53 -172 -83 -8 -9 -32 -29 -52 -44 -21 -15 -38 -34 -38 -42 0 -7 -3 -15 -8 -17 -13 -6 -70 -132 -77 -173 -11 -62 -2 -170 16 -189 5 -6 9 -20 9 -33 0 -13 5 -23 10 -23 6 0 10 -9 10 -20 0 -11 4 -20 8 -20 5 0 15 -12 23 -27 33 -64 168 -173 215 -173 8 0 14 -4 14 -10 0 -5 18 -10 40 -10 22 0 40 -4 40 -10 0 -5 24 -10 54 -10 30 0 58 5 61 10 3 6 19 10 35 10 16 0 32 5 35 10 3 6 17 10 31 10 13 0 24 5 24 10 0 6 9 10 20 10 11 0 20 5 20 10 0 6 9 10 19 10 11 0 21 3 23 8 2 4 20 20 41 35 20 15 37 32 37 38 0 5 9 19 20 31 11 12 20 28 20 35 0 7 5 13 10 13 6 0 10 7 10 15 0 8 4 23 9 33 21 42 31 94 31 164 0 222 -146 397 -365 437 -70 13 -91 13 -173 -5z"></path></g></g></svg>