<svg class="img-fluid" id="outputsvg" xmlns="http://www.w3.org/2000/svg" style="transform: matrix(1, 0, 0, 1, 0, 0); transform-origin: 50% 50%; cursor: move; max-height: none; transition: transform 200ms ease-in-out;" width="1024" height="1024" viewBox="0 0 10240 10240"><g id="l9jrprJP5jmKXm3DlDNVVq" fill="rgb(33,185,195)" style="transform: none;"><g style="transform: none;"><path id="pVHAbtZjC" d="M1675 6463 c-16 -2 -86 -18 -155 -35 -238 -57 -442 -177 -615 -360 -237 -251 -358 -588 -339 -943 6 -100 15 -149 51 -280 25 -91 113 -281 155 -336 125 -162 205 -243 333 -331 227 -158 468 -223 809 -219 170 2 216 -2 216 -17 0 -4 -27 -35 -60 -70 -54 -56 -60 -67 -60 -104 0 -81 67 -138 145 -124 28 6 72 44 224 197 206 206 223 231 198 291 -20 45 -379 405 -409 410 -86 13 -158 -40 -158 -115 0 -49 22 -86 79 -137 22 -19 42 -45 46 -56 6 -21 2 -22 -121 -29 -357 -21 -628 58 -844 244 -119 103 -183 180 -243 296 -84 162 -106 259 -106 455 -1 230 49 389 183 591 39 59 212 228 262 256 285 163 514 201 799 133 87 -20 201 -69 279 -118 65 -42 104 -48 151 -26 46 22 80 88 70 136 -11 50 -87 112 -209 172 -115 56 -208 85 -360 111 -81 14 -247 18 -321 8z"></path><path id="p1FprAw16T" d="M2680 5958 c-82 -42 -113 -142 -71 -234 49 -108 200 -129 289 -40 34 34 37 40 40 108 3 63 1 77 -20 107 -37 55 -71 74 -135 79 -46 3 -67 -1 -103 -20z"></path><path id="pgvC7lttQ" d="M4653 5745 c-262 -57 -420 -326 -359 -611 51 -237 236 -393 466 -394 74 0 161 20 222 51 54 28 143 113 175 167 51 87 83 242 69 337 l-7 45 -350 0 -349 0 0 23 c1 37 52 118 95 149 101 72 280 50 346 -43 l20 -29 114 0 114 0 -14 39 c-20 58 -57 111 -114 164 -109 102 -261 138 -428 102z m340 -615 c-9 -40 -39 -93 -65 -116 -117 -107 -325 -70 -389 70 -34 75 -47 71 221 71 l239 0 -6 -25z"></path><path id="ppJnxoUrD" d="M5633 5745 c-159 -35 -273 -154 -273 -287 l0 -28 115 0 c97 0 115 2 115 15 0 64 76 114 173 115 99 0 157 -39 157 -106 0 -56 -27 -70 -230 -114 -156 -34 -243 -88 -285 -177 -43 -91 -25 -224 41 -301 93 -109 305 -150 471 -92 112 39 180 110 202 212 17 76 15 78 -109 78 l-108 0 -7 -29 c-12 -56 -72 -91 -156 -91 -84 0 -129 35 -129 99 0 35 35 67 89 80 20 5 83 20 141 34 129 30 188 57 240 109 102 102 88 295 -30 402 -94 84 -256 116 -417 81z"></path><path id="p1FKKkyqTL" d="M7348 5737 c-204 -70 -331 -256 -331 -487 0 -151 47 -266 152 -371 104 -103 218 -147 358 -136 113 8 225 70 274 151 18 29 18 29 12 -47 l-6 -77 117 0 116 0 0 480 0 480 -116 0 -116 0 4 -69 3 -68 -39 44 c-22 25 -56 55 -76 68 -93 58 -236 71 -352 32z m313 -224 c101 -52 157 -165 146 -291 -14 -146 -110 -247 -247 -259 -115 -11 -220 45 -270 143 -22 43 -25 62 -25 149 0 118 16 158 89 222 55 49 90 61 182 62 58 1 80 -4 125 -26z"></path><path id="pnK6swWUK" d="M6637 5739 c-92 -22 -176 -93 -207 -177 -18 -48 -20 -78 -20 -317 l0 -265 -90 0 -90 0 0 -105 0 -105 90 0 90 0 0 -140 0 -140 115 0 115 0 0 140 0 140 123 0 122 0 -3 105 -3 105 -120 0 -119 0 0 218 c0 119 5 234 10 254 17 61 59 83 153 82 l77 -1 0 98 0 97 -50 11 c-59 13 -139 13 -193 0z"></path><path id="phkdFHF7n" d="M9387 5739 c-92 -22 -176 -93 -207 -177 -18 -48 -20 -78 -20 -317 l0 -265 -85 0 -85 0 0 -105 0 -105 85 0 85 0 0 -142 0 -143 115 3 115 3 0 140 0 139 115 0 115 0 0 105 0 105 -115 0 -115 0 0 238 c0 251 2 262 50 299 24 19 98 27 146 16 l44 -10 0 102 0 102 -57 12 c-65 13 -132 13 -186 0z"></path><path id="peJhnvzKN" d="M3640 5250 l0 -480 115 0 115 0 0 71 0 71 33 -48 c47 -70 118 -106 218 -112 l79 -5 0 120 0 120 -77 -1 c-66 -1 -85 3 -123 24 -52 29 -105 95 -120 148 -5 21 -10 151 -10 305 l0 267 -115 0 -115 0 0 -480z"></path><path id="pLx0bJAar" d="M8301 5250 l-1 -480 118 0 117 0 -2 83 c-2 69 -1 77 8 52 15 -40 75 -102 124 -128 27 -13 66 -22 118 -25 l77 -5 0 122 0 122 -45 -6 c-77 -12 -142 11 -200 69 -32 32 -55 66 -63 92 -8 28 -12 129 -12 313 l0 271 -119 0 -120 0 0 -480z"></path><path id="pXyBwDPpn" d="M2878 5406 c-126 -55 -145 -227 -35 -307 32 -23 50 -29 92 -29 68 0 104 14 139 56 54 65 55 176 3 232 -51 55 -137 76 -199 48z"></path><path id="p43zb5p6Y" d="M2838 4827 c-52 -17 -93 -57 -114 -112 -15 -41 -16 -54 -5 -93 16 -60 44 -98 91 -122 86 -44 197 -11 238 70 53 107 5 230 -103 259 -48 13 -59 13 -107 -2z"></path></g></g></svg>