<svg width="16" height="16" viewBox="0 0 16 16" fill="none" xmlns="http://www.w3.org/2000/svg">
<g clip-path="url(#clip0_4_2)">
<path d="M8 16C10.1217 16 12.1566 15.1571 13.6569 13.6569C15.1571 12.1566 16 10.1217 16 8C16 5.87827 15.1571 3.84344 13.6569 2.34315C12.1566 0.842855 10.1217 0 8 0C5.87827 0 3.84344 0.842855 2.34315 2.34315C0.842855 3.84344 0 5.87827 0 8C0 10.1217 0.842855 12.1566 2.34315 13.6569C3.84344 15.1571 5.87827 16 8 16ZM7 6.5C7 7.328 6.552 8 6 8C5.448 8 5 7.328 5 6.5C5 5.672 5.448 5 6 5C6.552 5 7 5.672 7 6.5ZM4.285 9.567C4.39984 9.5007 4.53631 9.48273 4.6644 9.51705C4.79249 9.55137 4.90169 9.63516 4.968 9.75C5.27527 10.2822 5.71724 10.7241 6.24948 11.0313C6.78172 11.3385 7.38547 11.5002 8 11.5C8.61453 11.5002 9.21828 11.3385 9.75052 11.0313C10.2828 10.7241 10.7247 10.2822 11.032 9.75C11.0646 9.69268 11.1082 9.64237 11.1603 9.60197C11.2124 9.56157 11.272 9.53187 11.3357 9.5146C11.3993 9.49732 11.4657 9.4928 11.5311 9.5013C11.5965 9.5098 11.6596 9.53115 11.7167 9.56412C11.7738 9.59709 11.8238 9.64103 11.8638 9.69341C11.9039 9.74579 11.9332 9.80558 11.95 9.86933C11.9669 9.93308 11.971 9.99953 11.962 10.0649C11.9531 10.1302 11.9313 10.1931 11.898 10.25C11.503 10.9342 10.9348 11.5024 10.2505 11.8973C9.56625 12.2923 8.79007 12.5002 8 12.5C7.20993 12.5002 6.43375 12.2923 5.7495 11.8973C5.06524 11.5024 4.49703 10.9342 4.102 10.25C4.0357 10.1352 4.01773 9.99869 4.05205 9.8706C4.08637 9.74251 4.17016 9.63331 4.285 9.567ZM10 8C9.448 8 9 7.328 9 6.5C9 5.672 9.448 5 10 5C10.552 5 11 5.672 11 6.5C11 7.328 10.552 8 10 8Z" fill="#4CC500"/>
</g>
<defs>
<clipPath id="clip0_4_2">
<rect width="16" height="16" fill="white"/>
</clipPath>
</defs>
</svg>
