<svg width="16" height="16" viewBox="0 0 16 16" fill="none" xmlns="http://www.w3.org/2000/svg">
<g clip-path="url(#clip0_4_4)">
<path d="M8 16C10.1217 16 12.1566 15.1571 13.6569 13.6569C15.1571 12.1566 16 10.1217 16 8C16 5.87827 15.1571 3.84344 13.6569 2.34315C12.1566 0.842855 10.1217 0 8 0C5.87827 0 3.84344 0.842855 2.34315 2.34315C0.842855 3.84344 0 5.87827 0 8C0 10.1217 0.842855 12.1566 2.34315 13.6569C3.84344 15.1571 5.87827 16 8 16ZM6.488 7C6.258 6.402 5.827 6 5.333 6C4.84 6 4.409 6.402 4.178 7C4.0582 6.68031 3.99787 6.3414 4 6C4 4.895 4.597 4 5.333 4C6.07 4 6.667 4.895 6.667 6C6.667 6.364 6.602 6.706 6.488 7ZM11.822 7C11.592 6.402 11.16 6 10.667 6C10.173 6 9.742 6.402 9.512 7C9.39186 6.68037 9.33119 6.34146 9.333 6C9.333 4.895 9.93 4 10.667 4C11.403 4 12 4.895 12 6C12 6.364 11.935 6.706 11.822 7ZM2.696 8.756C2.74745 8.71003 2.80821 8.6757 2.87413 8.65533C2.94005 8.63497 3.00959 8.62906 3.078 8.638C4.348 8.786 6.448 9 8 9C9.553 9 11.653 8.786 12.922 8.638C12.9906 8.62891 13.0603 8.63475 13.1264 8.65512C13.1925 8.67548 13.2534 8.7099 13.305 8.756C13.3455 8.79131 13.3758 8.83685 13.3927 8.88787C13.4096 8.93888 13.4124 8.99349 13.401 9.046C13.311 9.516 13.159 9.967 12.956 10.388C12.693 10.423 12.38 10.463 12.027 10.503C10.6902 10.6585 9.34583 10.741 8 10.75C6.525 10.75 5.066 10.627 3.973 10.503C3.62 10.463 3.307 10.423 3.043 10.388C2.83816 9.96126 2.68926 9.50986 2.6 9.045C2.58868 8.99241 2.59171 8.93773 2.60878 8.88671C2.62584 8.83569 2.65631 8.7902 2.697 8.755L2.696 8.756ZM8 13.5C7.18539 13.5006 6.38085 13.3199 5.64472 12.9711C4.90859 12.6222 4.25933 12.1139 3.744 11.483L3.86 11.497C4.975 11.623 6.475 11.75 8 11.75C9.525 11.75 11.025 11.623 12.14 11.497L12.257 11.483C11.7416 12.114 11.0921 12.6224 10.3558 12.9713C9.61951 13.3202 8.81478 13.5008 8 13.5Z" fill="#FF6F0E"/>
</g>
<defs>
<clipPath id="clip0_4_4">
<rect width="16" height="16" fill="white"/>
</clipPath>
</defs>
</svg>
