<svg width="16" height="16" viewBox="0 0 16 16" fill="none" xmlns="http://www.w3.org/2000/svg">
<g clip-path="url(#clip0_10_2)">
<path d="M8.00021 5.14369L7.03463 4.05375C5.40956 2.32386 2.70294 1.87889 1.62728 4.05375C1.12229 5.07669 1.00835 6.55359 1.93047 8.43848C2.81881 10.2534 4.66693 12.4272 8.0001 14.7951C11.3333 12.4272 13.1804 10.2534 14.0697 8.43848C14.9919 6.55259 14.8789 5.07669 14.3729 4.05375C13.2973 1.87889 10.5909 2.27081 8.96578 4.00071L8.00021 5.14369ZM8.0001 16C-6.80512 5.86864 2.61144 -1.68274 7 2.5C7.05793 2.55533 7.94464 3.44134 8 3.5C8.05439 3.44097 8.94114 2.55425 9 2.5C13.3876 -1.68574 22.8053 5.86764 8.0001 16Z" fill="#FF6F0E"/>
</g>
<defs>
<clipPath id="clip0_10_2">
<rect width="16" height="16" fill="white"/>
</clipPath>
</defs>
</svg>
